<svg width="231" height="66" viewBox="0 0 231 66" fill="none" xmlns="http://www.w3.org/2000/svg">
<g clip-path="url(#clip0_1582_610)">
<path d="M54.26 39.32C54.26 38.47 53.57 37.79 52.73 37.79C51.89 37.79 51.19 38.48 51.19 39.32V47.77C51.19 47.77 51.19 47.84 51.19 47.87V55.14C51.19 58.66 48.33 61.52 44.81 61.52C41.29 61.52 38.43 58.66 38.43 55.14V51.07C38.43 51.07 38.43 51.02 38.43 50.99V49.6C38.43 40 30.62 32.19 21.02 32.19C11.42 32.19 3.62 40 3.62 49.6V64.31C3.62 65.16 4.31 65.84 5.15 65.84C5.99 65.84 6.68 65.15 6.68 64.31V49.6C6.68 41.69 13.11 35.26 21.02 35.26C28.93 35.26 35.36 41.69 35.36 49.6V49.63C35.36 49.63 35.36 49.68 35.36 49.71V55.15C35.36 60.36 39.6 64.6 44.81 64.6C50.02 64.6 54.26 60.36 54.26 55.15V48.21C54.26 48.21 54.27 48.14 54.27 48.11V39.33L54.26 39.32Z" fill="#678E0A"/>
<path d="M36.17 28.57C36.94 32.06 39.01 35.26 42.22 37.38C45.44 39.5 49.2 40.14 52.7 39.48C51.93 36 49.86 32.79 46.65 30.67C43.43 28.55 39.67 27.91 36.17 28.57Z" fill="#C6D800"/>
<path d="M50.04 41.17C46.97 41.17 44 40.27 41.44 38.58C38.03 36.33 35.66 32.88 34.77 28.88C34.69 28.5 34.76 28.1 34.97 27.78C35.18 27.45 35.52 27.23 35.9 27.16C39.89 26.4 44.06 27.24 47.44 29.47C50.85 31.72 53.22 35.16 54.1 39.17C54.18 39.55 54.1 39.95 53.9 40.27C53.69 40.59 53.35 40.82 52.97 40.89C52 41.07 51.01 41.17 50.03 41.17H50.04ZM38.01 29.79C38.94 32.41 40.67 34.64 43.02 36.19C45.11 37.57 47.54 38.3 50.04 38.3C50.32 38.3 50.6 38.29 50.87 38.27C49.95 35.65 48.21 33.42 45.87 31.87C43.55 30.34 40.8 29.61 38.02 29.79H38.01Z" fill="#678E0A"/>
<path d="M69.3 28.57C68.53 32.06 66.46 35.26 63.25 37.38C60.04 39.5 56.28 40.14 52.77 39.48C53.54 36 55.61 32.79 58.82 30.67C62.04 28.55 65.8 27.91 69.3 28.57Z" fill="#C6D800"/>
<path d="M55.44 41.17C54.46 41.17 53.47 41.08 52.5 40.89C52.12 40.82 51.78 40.59 51.57 40.27C51.36 39.94 51.28 39.55 51.37 39.17C52.26 35.16 54.62 31.72 58.04 29.47C61.42 27.23 65.6 26.4 69.58 27.16C69.96 27.23 70.3 27.46 70.51 27.78C70.72 28.11 70.8 28.5 70.71 28.88C69.82 32.88 67.46 36.33 64.04 38.58C61.48 40.27 58.5 41.17 55.44 41.17ZM54.61 38.27C57.39 38.44 60.14 37.72 62.46 36.19C64.8 34.64 66.54 32.41 67.47 29.79C64.69 29.61 61.94 30.34 59.62 31.87C57.28 33.41 55.54 35.65 54.62 38.27H54.61Z" fill="#678E0A"/>
<path d="M41.91 11.84C41.65 11.03 40.79 10.58 39.98 10.84C37.67 11.57 34.32 12.15 30.44 12.51V10.31C30.44 5.09999 26.2 0.859985 20.99 0.859985C15.78 0.859985 11.54 5.09999 11.54 10.31V12.51C7.65999 12.15 4.30999 11.58 1.99999 10.84C1.18999 10.58 0.329994 11.03 0.0699939 11.84C-0.190006 12.65 0.259994 13.51 1.06999 13.77C3.65999 14.59 7.31999 15.22 11.54 15.6V20.06C11.54 25.27 15.78 29.51 20.99 29.51C26.2 29.51 30.44 25.27 30.44 20.06V15.6C34.66 15.22 38.32 14.6 40.91 13.77C41.72 13.51 42.17 12.65 41.91 11.84ZM14.61 10.31C14.61 6.78999 17.47 3.92999 20.99 3.92999C24.51 3.92999 27.37 6.78999 27.37 10.31V12.74C25.32 12.86 23.17 12.93 20.99 12.93C18.81 12.93 16.66 12.86 14.61 12.74V10.31ZM27.37 20.06C27.37 23.58 24.51 26.44 20.99 26.44C17.47 26.44 14.61 23.58 14.61 20.06V15.82C16.66 15.94 18.8 16 20.99 16C23.18 16 25.32 15.94 27.37 15.82V20.06Z" fill="#678E0A"/>
<path d="M20.99 23.83C19.07 23.83 17.33 22.76 16.45 21.05C16.21 20.58 16.39 20 16.87 19.76C17.34 19.52 17.92 19.71 18.16 20.18C18.71 21.25 19.79 21.92 20.99 21.92C22.19 21.92 23.27 21.25 23.82 20.18C24.06 19.71 24.64 19.52 25.11 19.76C25.58 20 25.77 20.58 25.53 21.05C24.65 22.77 22.91 23.83 20.99 23.83Z" fill="#678E0A"/>
<path d="M52.8 28.73C52.27 28.73 51.84 28.3 51.84 27.77V24.93C51.84 24.4 52.27 23.97 52.8 23.97C53.33 23.97 53.76 24.4 53.76 24.93V27.77C53.76 28.3 53.33 28.73 52.8 28.73Z" fill="#ED7100"/>
<path d="M60.24 24.34C60.08 24.34 59.91 24.3 59.76 24.21L57.3 22.79C56.84 22.52 56.68 21.94 56.95 21.48C57.21 21.02 57.8 20.86 58.26 21.13L60.72 22.55C61.18 22.82 61.34 23.4 61.07 23.86C60.89 24.17 60.57 24.34 60.24 24.34Z" fill="#ED7100"/>
<path d="M57.77 17.15C57.44 17.15 57.12 16.98 56.94 16.67C56.68 16.21 56.83 15.62 57.29 15.36L59.75 13.94C60.21 13.67 60.8 13.83 61.06 14.29C61.32 14.75 61.17 15.34 60.71 15.6L58.25 17.02C58.1 17.11 57.93 17.15 57.77 17.15Z" fill="#ED7100"/>
<path d="M52.8 14.31C52.27 14.31 51.84 13.88 51.84 13.35V10.51C51.84 9.97999 52.27 9.54999 52.8 9.54999C53.33 9.54999 53.76 9.97999 53.76 10.51V13.35C53.76 13.88 53.33 14.31 52.8 14.31Z" fill="#ED7100"/>
<path d="M47.81 17.17C47.65 17.17 47.48 17.13 47.33 17.04L44.87 15.62C44.41 15.35 44.25 14.77 44.52 14.31C44.78 13.85 45.37 13.69 45.83 13.96L48.29 15.38C48.75 15.65 48.91 16.23 48.64 16.69C48.46 17 48.14 17.17 47.81 17.17Z" fill="#ED7100"/>
<path d="M45.4 24.32C45.07 24.32 44.75 24.15 44.57 23.84C44.3 23.38 44.46 22.79 44.92 22.53L47.38 21.11C47.84 20.85 48.42 21 48.69 21.46C48.96 21.92 48.8 22.5 48.34 22.77L45.88 24.19C45.73 24.28 45.56 24.32 45.4 24.32Z" fill="#ED7100"/>
<path d="M52.8 23.14C50.59 23.14 48.8 21.34 48.8 19.14C48.8 16.94 50.59 15.14 52.8 15.14C55.01 15.14 56.8 16.93 56.8 19.14C56.8 21.35 55.01 23.14 52.8 23.14ZM52.8 17.06C51.65 17.06 50.72 17.99 50.72 19.14C50.72 20.29 51.65 21.22 52.8 21.22C53.95 21.22 54.88 20.29 54.88 19.14C54.88 17.99 53.95 17.06 52.8 17.06Z" fill="#ED7100"/>
<path d="M93.9 11.04C94.46 10.93 94.96 10.52 95.14 10.03C95.32 9.49001 95.19 8.93001 94.44 8.38001L91.46 6.22001C91.64 5.63001 91.75 5.09001 91.77 4.57001H94.86V2.99001C94.86 2.52001 94.61 2.29001 94.14 2.29001H91.66C92.11 1.39001 91.89 0.650008 91.07 0.370008C90.37 0.120008 89.49 0.350008 88.93 0.820008C89.04 1.34001 89.18 1.79001 89.31 2.28001H86.02V3.86001C86.02 4.33001 86.27 4.56001 86.74 4.56001H89.15C89.04 6.05001 87.66 8.03001 85.43 9.61001C85.52 10.22 85.88 10.76 86.47 10.99C86.97 11.17 87.69 11.1 88.36 10.58C89.1 10.02 89.73 9.32001 90.25 8.57001L93.88 11.03L93.9 11.04ZM94.22 5.22001C93.97 5.87001 93.95 6.75001 94.15 7.16001C94.42 7.68001 94.98 7.93001 97.33 7.72001V11.55C99.07 11.73 99.88 11.39 100.08 10.44C100.21 9.83001 100.17 9.13001 100.17 8.12001V1.14001C100.17 0.640008 99.92 0.400008 99.4 0.400008H97.33V5.22001H94.22ZM94.6 12.03C90.61 12.03 88.72 13.81 88.72 15.89C88.72 17.97 90.57 19.36 94.6 19.36C98.63 19.36 100.48 17.96 100.48 15.89C100.48 13.82 98.59 12.03 94.6 12.03ZM94.6 16.94C92.37 16.94 91.63 16.44 91.63 15.7C91.63 14.96 92.53 14.32 94.6 14.32C96.67 14.32 97.58 14.95 97.58 15.7C97.58 16.45 96.84 16.94 94.6 16.94ZM111.12 5.63001C110.85 6.24001 110.83 7.10001 111.05 7.52001C111.32 8.02001 111.88 8.29001 114.93 8.06001V13.81C116.67 13.99 117.48 13.65 117.68 12.71C117.82 12.1 117.77 11.4 117.77 10.39V1.16001C117.77 0.660008 117.52 0.420008 117 0.420008H114.93V2.02001H111.12C110.85 2.63001 110.83 3.48001 111.05 3.91001C111.32 4.41001 111.88 4.68001 114.93 4.45001V5.62001H111.12V5.63001ZM113.31 9.23001C113.31 8.71001 112.93 8.46001 112.3 8.58001C111.17 8.74001 109.53 8.87001 108.4 8.65001C107.48 8.45001 106.96 7.93001 106.84 6.85001C106.73 5.79001 106.8 3.36001 106.89 2.27001C106.94 1.77001 106.71 1.50001 106.24 1.50001H104.3C103.96 3.44001 103.87 6.75001 104.19 8.33001C104.53 10.04 105.66 10.92 107.73 11.21C109.35 11.44 111.7 11.28 113.32 10.85V9.23001H113.31ZM117.05 16.02C115.2 16.27 112.52 16.36 110.94 16.09C109.97 15.93 109.5 15.48 109.39 14.89C109.32 14.46 109.25 13.58 109.28 12.97C109.3 12.38 109.03 12.14 108.54 12.14H106.6C106.44 13.34 106.46 15.27 106.69 16.15C107.01 17.46 107.95 18.29 109.96 18.58C112.28 18.92 115.6 18.85 118.03 18.38V16.83C118.03 16.2 117.67 15.93 117.06 16.02H117.05ZM130.33 9.05001V7.90001C131.86 7.88001 133.42 7.77001 134.66 7.58001V6.07001C134.66 5.51001 134.3 5.26001 133.65 5.30001C131.98 5.41001 128.58 5.48001 127.18 5.25001C126.08 5.07001 125.65 4.71001 125.53 3.87001C125.46 3.37001 125.48 2.38001 125.48 2.07001C125.48 1.55001 125.25 1.33001 124.74 1.33001H122.76C122.62 2.66001 122.67 4.44001 122.89 5.37001C123.23 6.77001 124.24 7.49001 126.36 7.74001L127.08 7.81001V9.05001H120.36V10.74C120.36 11.24 120.61 11.48 121.13 11.48H137.05V9.79001C137.05 9.29001 136.8 9.05001 136.28 9.05001H130.33ZM128.73 12.32C124.9 12.32 122.76 13.97 122.76 16.02C122.76 18.18 124.79 19.45 128.73 19.45C132.67 19.45 134.66 18.19 134.66 16.02C134.66 13.97 132.56 12.32 128.73 12.32ZM128.73 17.12C126.66 17.12 125.84 16.62 125.84 15.9C125.84 15.18 126.7 14.61 128.73 14.61C130.76 14.61 131.57 15.2 131.57 15.9C131.57 16.6 130.8 17.12 128.73 17.12ZM147.91 9.84001V9.03001C149.29 9.01001 150.77 8.94001 152.31 8.80001V7.52001C152.31 6.96001 152 6.73001 151.34 6.78001C149.09 6.91001 146.85 6.89001 145.23 6.76001C143.9 6.67001 143.34 6.42001 143.13 5.90001H151.56V4.57001C151.56 4.14001 151.31 3.89001 150.79 3.89001H143.04C143.04 3.62001 143.06 3.35001 143.09 3.10001H151.79V1.68001C151.79 1.23001 151.54 0.980008 151 0.980008H140.74C140.45 2.51001 140.31 4.77001 140.49 6.12001C140.74 7.95001 141.91 8.74001 144.66 8.92001V9.84001H137.94V11.46C137.94 11.96 138.19 12.2 138.71 12.2H154.63V10.58C154.63 10.08 154.38 9.84001 153.86 9.84001H147.91ZM146.31 12.77C142.43 12.77 140.34 14.37 140.34 16.24C140.34 18.22 142.32 19.44 146.31 19.44C150.3 19.44 152.24 18.22 152.24 16.24C152.24 14.37 150.19 12.77 146.31 12.77ZM146.31 17.15C144.21 17.15 143.4 16.77 143.4 16.16C143.4 15.55 144.26 15.03 146.31 15.03C148.36 15.03 149.17 15.55 149.17 16.16C149.17 16.77 148.4 17.15 146.31 17.15ZM165.27 2.83001C165.27 2.33001 165.02 2.09001 164.5 2.09001H161.55C161.96 1.14001 161.78 0.350008 160.94 0.080008C160.29 -0.119992 159.41 0.060008 158.87 0.510008C158.98 0.980008 159.12 1.55001 159.23 2.09001H155.38V3.51001C155.38 4.00001 155.63 4.25001 156.15 4.25001H165.28V2.83001H165.27ZM172.21 5.81001C171.94 5.13001 171.33 4.89001 169.55 5.20001V1.19001C169.55 0.690008 169.3 0.450008 168.78 0.450008H166.71V11.16C168.45 11.34 169.26 11 169.46 10.06C169.57 9.52001 169.55 8.91001 169.55 8.05001H171.92C172.35 7.37001 172.44 6.43001 172.21 5.82001V5.81001ZM164.46 7.95001C164.46 6.03001 162.97 4.66001 160.34 4.66001C157.71 4.66001 156.22 6.03001 156.22 7.95001C156.22 9.87001 157.6 11.08 160.34 11.08C163.08 11.08 164.46 9.86001 164.46 7.95001ZM158.8 7.84001C158.8 7.10001 159.41 6.64001 160.33 6.64001C161.25 6.64001 161.86 7.09001 161.86 7.84001C161.86 8.59001 161.32 8.97001 160.33 8.97001C159.34 8.97001 158.8 8.56001 158.8 7.84001ZM166.66 12.01V13.41H160.73C160.73 13.16 160.73 12.92 160.75 12.69C160.77 12.24 160.64 12.01 160.16 12.01H158.22C157.97 13.68 157.93 15.64 158.24 16.65C158.69 18.14 159.95 19.02 162.3 19.22C165.25 19.47 168.09 18.93 169.38 17.82V12.72C169.38 12.25 169.16 12 168.64 12H166.66V12.01ZM162.54 16.9C161.39 16.7 160.92 16.36 160.83 15.55V15.48H166.67V16.56C165.61 16.97 163.76 17.08 162.55 16.9H162.54ZM187.49 3.08001V1.50001C187.49 1.00001 187.24 0.760008 186.72 0.760008H175.45V2.34001C175.45 2.84001 175.7 3.08001 176.22 3.08001H187.49ZM187.7 7.63001V6.01001C187.7 5.60001 187.45 5.36001 186.93 5.36001H185.69L185.78 4.30001C185.8 3.71001 185.51 3.51001 185.01 3.51001H183.18C183.16 4.07001 183.11 4.70001 183.07 5.36001H179.94V4.16001C179.94 3.66001 179.67 3.46001 179.17 3.46001H177.34V5.35001H175.2V6.88001C175.2 7.38001 175.45 7.62001 175.97 7.62001H187.69L187.7 7.63001ZM173.11 8.60001V10.22C173.11 10.72 173.36 10.96 173.88 10.96H189.79V9.34001C189.79 8.84001 189.54 8.60001 189.02 8.60001H173.1H173.11ZM186.66 16.99C184.16 17.21 180.57 17.19 179.09 16.99C178.48 16.9 178.21 16.7 178.28 16.34H186.21C186.77 16.34 187.04 16.07 187.04 15.55V12.53C187.04 12.08 186.84 11.85 186.34 11.85H175.68V12.89C175.68 13.5 176.06 13.84 176.76 13.84H184.54V14.58H175.77C175.52 15.73 175.57 16.77 175.86 17.47C176.2 18.3 177.08 18.8 178.57 19.02C181.05 19.36 185.18 19.22 187.52 18.88V17.62C187.52 17.19 187.2 16.94 186.66 16.99ZM206.38 1.16001C206.38 0.660008 206.13 0.420008 205.61 0.420008H203.67V4.61001H202.18V1.39001C202.18 0.890008 201.93 0.650008 201.41 0.650008H199.58V8.92001C198.36 9.21001 197.24 9.32001 195.95 9.24001C194.73 9.15001 194.33 8.83001 194.24 8.36001C194.19 8.04001 194.17 7.71001 194.22 7.44001H198.08V2.25001C198.08 1.78001 197.85 1.51001 197.38 1.51001H191.63V3.07001C191.63 3.57001 191.88 3.81001 192.4 3.81001H195.53V5.32001H191.83C191.56 6.67001 191.51 7.96001 191.67 8.93001C191.94 10.55 193.02 11.34 195.82 11.5C197.06 11.57 198.28 11.48 199.58 11.16V12.15C200.21 12.24 200.87 12.31 201.41 12.13C201.93 11.97 202.18 11.61 202.18 10.78V7.44001H203.67V13.26C205.32 13.44 206.11 13.1 206.28 12.15C206.42 11.54 206.37 10.84 206.37 9.83001V1.16001H206.38ZM201.31 14.64C201.47 14.21 201.56 13.76 201.56 13.29C201.56 12.77 201.36 12.52 200.84 12.52H199.01V13.11C198.99 14.46 197.07 15.77 193.4 17.03C193.42 17.84 193.76 18.43 194.28 18.7C194.8 18.99 195.5 18.95 196.65 18.54C197.57 18.16 198.7 17.59 199.65 16.83L205.26 18.9C205.85 18.63 206.21 18.11 206.25 17.48C206.29 16.85 205.96 16.4 205.19 16.1L201.31 14.64ZM222.66 3.17001V1.57001C222.66 1.07001 222.41 0.830008 221.89 0.830008H210.62V2.43001C210.62 2.93001 210.87 3.17001 211.39 3.17001H222.66ZM218.24 9.30001V8.17001H222.86V6.52001C222.86 6.11001 222.61 5.87001 222.09 5.87001H220.83L220.94 4.43001C220.96 3.84001 220.67 3.64001 220.17 3.64001H218.37L218.24 5.87001H215.13V4.27001C215.13 3.77001 214.86 3.57001 214.36 3.57001H212.53V5.87001H210.37V7.43001C210.37 7.93001 210.62 8.17001 211.14 8.17001H215V9.30001H208.28V10.99C208.28 11.49 208.53 11.73 209.05 11.73H224.97V10.04C224.97 9.54001 224.72 9.30001 224.2 9.30001H218.25H218.24ZM211.12 12.71C210.71 14.22 210.6 15.62 210.92 16.77C211.35 18.42 212.9 19.09 215.41 19.29C217.71 19.47 220.96 19.09 222.53 18V13.45C222.53 12.95 222.26 12.71 221.76 12.71H211.12ZM219.66 16.54C218.4 16.97 216.14 17.01 214.93 16.79C213.78 16.54 213.53 16.02 213.65 15.05H219.67V16.54H219.66Z" fill="#727171"/>
<path d="M191.06 26.2C191.06 25.16 190.54 24.65 189.46 24.65H185.18V39.06H181.88V27.15C181.88 26.11 181.36 25.6 180.28 25.6H176.23V48.29C174.02 48.81 171.9 49 170.01 48.81C166.57 48.48 165.11 47.16 164.83 43.96C164.55 41.28 164.69 36.33 165.02 34.45H173.12V30.54C173.12 29.69 172.65 29.32 171.71 29.32H159.89C158.71 35.91 158.43 41.84 159.04 46.51C159.65 51.03 162.38 53.43 167.75 53.9C170.86 54.23 173.78 53.9 176.23 53.29V61.86C177.59 62.05 179.05 62.19 180.23 61.81C181.36 61.48 181.88 60.68 181.88 58.98V44.95H185.18V63.69C188.76 64.07 190.45 63.36 190.88 61.38C191.16 60.11 191.07 58.65 191.07 56.53V26.21L191.06 26.2ZM216.35 52.99V49.08C219.27 48.99 222.57 48.8 225.67 48.28V45.27C225.67 44 224.82 43.43 223.46 43.57C219.27 43.99 213.05 44.04 210.46 43.81C207.21 43.53 206.74 42.87 206.79 40.65H224.4V29.59C224.4 28.6 223.93 28.04 222.94 28.04H201.33V31.62C201.33 32.66 201.85 33.17 202.93 33.17H218.75V36H201.52C201.05 39.11 200.95 42.26 201.43 44.24C202.09 46.88 204.26 48.38 209.58 48.85V52.99H195.55V56.62C195.55 57.66 196.07 58.17 197.15 58.17H230.39V54.54C230.39 53.5 229.87 52.99 228.79 52.99H216.36H216.35Z" fill="#70BA4A"/>
<path d="M118.79 36.32C118.22 34.91 116.95 34.39 113.23 35.05V26.2C113.23 25.16 112.71 24.65 111.63 24.65H107.3V52.62C110.93 53 112.62 52.29 113.04 50.31C113.32 49.04 113.23 47.58 113.23 45.46V40.99H118.17C119.06 39.58 119.25 37.6 118.78 36.33L118.79 36.32ZM104.66 43.76C104.66 42.68 104.05 42.16 102.87 42.3C100.61 42.53 97.41 42.68 94.77 42.39C92.18 42.06 91.05 40.98 90.81 38.62H102.68V35.75C102.68 34.76 102.16 34.29 101.17 34.29H90.81C90.86 33.11 90.9 31.98 91.05 31.09H103.48V27.75C103.48 26.86 102.96 26.43 101.97 26.43H86.29C85.4 31.8 85.16 37.35 85.54 40.65C86.01 44.65 88.32 46.39 93.97 47.01C97.13 47.39 101.36 47.15 104.66 46.49V43.76ZM111.77 57.23C108.05 57.75 102.12 57.98 98.82 57.42C96.84 57.09 95.9 56.24 95.67 55.11C95.58 54.36 95.48 52.9 95.48 51.77C95.53 50.55 94.96 50.03 93.93 50.03H89.93C89.6 52.38 89.65 55.92 90.07 57.66C90.68 60.3 92.61 61.99 96.66 62.6C101.74 63.31 108.86 63.17 113.8 62.18V58.93C113.8 57.61 113.05 57.05 111.77 57.23ZM155.98 36.32C155.41 34.91 154.14 34.39 150.42 35.05V26.2C150.42 25.16 149.9 24.65 148.82 24.65H144.49V52.62C148.12 53 149.81 52.29 150.23 50.31C150.51 49.04 150.42 47.58 150.42 45.46V40.99H155.36C156.25 39.58 156.44 37.6 155.97 36.33L155.98 36.32ZM141.86 43.76C141.86 42.68 141.25 42.16 140.07 42.3C137.81 42.53 134.61 42.68 131.97 42.39C129.38 42.06 128.25 40.98 128.02 38.62H139.89V35.75C139.89 34.76 139.37 34.29 138.38 34.29H128.02C128.07 33.11 128.11 31.98 128.25 31.09H140.68V27.75C140.68 26.86 140.16 26.43 139.17 26.43H123.49C122.6 31.8 122.36 37.35 122.74 40.65C123.21 44.65 125.52 46.39 131.17 47.01C134.32 47.39 138.56 47.15 141.86 46.49V43.76ZM148.97 57.23C145.25 57.75 139.32 57.98 136.02 57.42C134.04 57.09 133.1 56.24 132.87 55.11C132.78 54.36 132.68 52.9 132.68 51.77C132.73 50.55 132.16 50.03 131.13 50.03H127.13C126.8 52.38 126.85 55.92 127.27 57.66C127.88 60.3 129.81 61.99 133.86 62.6C138.94 63.31 146.05 63.17 151 62.18V58.93C151 57.61 150.25 57.05 148.98 57.23H148.97Z" fill="#0AA661"/>
</g>
<defs>
<clipPath id="clip0_1582_610">
<rect width="230.38" height="65.84" fill="white"/>
</clipPath>
</defs>
</svg>
